<?xml version="1.0" encoding="UTF-8" standalone="no"?>
<!-- Created with Inkscape (http://www.inkscape.org/) -->

<svg
   width="1080"
   height="1919"
   viewBox="0 0 285.74999 507.73542"
   version="1.1"
   id="svg1"
   xmlns="http://www.w3.org/2000/svg"
   xmlns:svg="http://www.w3.org/2000/svg">
  <defs
     id="defs1" />
  <g
     id="layer3">
    <rect
       style="fill:#293181;fill-opacity:1;stroke-width:0.539968"
       id="rect1"
       width="99.521523"
       height="153.806"
       x="-8.983037"
       y="-65.137093"
       ry="0"
       transform="rotate(45)" />
    <rect
       style="fill:#c0c5dc;fill-opacity:1;stroke-width:0.236918"
       id="rect1-4-6"
       width="42.221249"
       height="69.794319"
       x="89.57814"
       y="-19.94413"
       ry="0"
       transform="rotate(45)" />
    <rect
       style="fill:#ececf4;fill-opacity:1;stroke-width:0.364628"
       id="rect1-4-6-4"
       width="49.545345"
       height="140.88112"
       x="97.31823"
       y="36.517071"
       ry="0"
       transform="rotate(45)" />
    <rect
       style="fill:#293181;fill-opacity:1;stroke-width:0.545146"
       id="rect1-4"
       width="114.60054"
       height="136.14201"
       x="-8.8917513"
       y="33.909077"
       ry="0"
       transform="rotate(45)" />
    <rect
       style="fill:#f2c34d;fill-opacity:1;stroke-width:0.159116"
       id="rect1-1"
       width="99.521523"
       height="13.355701"
       x="-0.67110878"
       y="27.394329"
       ry="0"
       transform="rotate(45)" />
    <rect
       style="fill:#f2c34d;fill-opacity:1;stroke-width:0.180568"
       id="rect1-1-49"
       width="99.521568"
       height="17.199558"
       x="-196.76221"
       y="134.93207"
       ry="0"
       transform="matrix(0.7081743,-0.70603765,0.70646232,0.70775066,0,0)" />
    <rect
       style="fill:#686251;fill-opacity:1;stroke-width:0.145447"
       id="rect1-1-49-6"
       width="99.5215"
       height="11.159521"
       x="212.58987"
       y="16.525219"
       ry="0"
       transform="matrix(0.99999952,9.8027241e-4,-0.00140407,0.99999901,0,0)" />
    <rect
       style="fill:#ab955a;fill-opacity:1;stroke-width:0.145447"
       id="rect1-1-49-6-5"
       width="99.5215"
       height="11.159521"
       x="-41.448444"
       y="440.3938"
       ry="0"
       transform="matrix(0.99999952,9.8027241e-4,-0.00140407,0.99999901,0,0)" />
    <rect
       style="fill:#293181;fill-opacity:1;stroke-width:0.205719"
       id="rect1-1-49-5"
       width="99.521645"
       height="22.324701"
       x="-216.25522"
       y="144.88052"
       ry="0"
       transform="matrix(0.70849209,-0.70571876,0.70661032,0.70760289,0,0)" />
    <rect
       style="fill:#f2c34d;fill-opacity:1;stroke-width:0.229635"
       id="rect1-1-4"
       width="146.04004"
       height="18.956497"
       x="27.602081"
       y="-113.97417"
       ry="0"
       transform="matrix(-0.70650797,0.70770508,-0.70839449,-0.70581672,0,0)" />
    <rect
       style="fill:#f2c34d;fill-opacity:1;stroke-width:0.126133"
       id="rect1-1-4-5"
       width="71.511589"
       height="11.679835"
       x="-64.990417"
       y="-101.2728"
       ry="0"
       transform="matrix(-0.70635323,0.70785953,-0.70813038,-0.7060817,0,0)" />
  </g>
  <g
     id="layer4"
     transform="translate(41.705508,150.67796)">
    <rect
       style="fill:#293181;fill-opacity:1;stroke-width:0.48948"
       id="rect1-8-5"
       width="99.521523"
       height="126.3882"
       x="324.92215"
       y="-44.323277"
       ry="0"
       transform="rotate(45)" />
    <rect
       style="fill:#c0c5dc;fill-opacity:1;stroke-width:0.236918"
       id="rect1-4-6-48"
       width="42.221249"
       height="69.794319"
       x="277.62323"
       y="40.474758"
       ry="0"
       transform="rotate(45)" />
    <rect
       style="fill:#293181;fill-opacity:1;stroke-width:0.539968"
       id="rect1-8"
       width="99.521523"
       height="153.806"
       x="299.49365"
       y="70.782631"
       ry="0"
       transform="rotate(45)" />
    <rect
       style="fill:#ececf4;fill-opacity:1;stroke-width:0.169409"
       id="rect1-4-6-4-5"
       width="16.034704"
       height="93.966217"
       x="257.94553"
       y="-79.663635"
       ry="0"
       transform="rotate(45)" />
    <rect
       style="fill:#f2c34d;fill-opacity:1;stroke-width:0.225228"
       id="rect1-1-8"
       width="99.521523"
       height="26.759958"
       x="-425.8508"
       y="-91.315193"
       ry="0"
       transform="rotate(-135)" />
    <rect
       style="fill:#f2c34d;fill-opacity:1;stroke-width:0.180568"
       id="rect1-1-49-3"
       width="99.521568"
       height="17.199558"
       x="-224.7549"
       y="282.19748"
       ry="0"
       transform="matrix(0.7081743,-0.70603765,0.70646232,0.70775066,0,0)" />
    <rect
       style="fill:#f2c34d;fill-opacity:1;stroke-width:0.180568"
       id="rect1-1-49-3-0"
       width="99.521568"
       height="17.199558"
       x="-47.294689"
       y="269.87674"
       ry="0"
       transform="matrix(0.7081743,-0.70603765,0.70646232,0.70775066,0,0)" />
    <rect
       style="fill:#f2c34d;fill-opacity:1;stroke-width:0.229635"
       id="rect1-1-4-6"
       width="146.04004"
       height="18.956497"
       x="-91.882301"
       y="311.1051"
       ry="0"
       transform="matrix(0.70650797,-0.70770508,0.70839449,0.70581672,0,0)" />
  </g>
</svg>
