<?xml version="1.0" encoding="UTF-8" standalone="no"?>
<!-- Created with Inkscape (http://www.inkscape.org/) -->

<svg
   width="1080"
   height="1919"
   viewBox="0 0 285.74999 507.73542"
   version="1.1"
   id="svg1"
   xmlns="http://www.w3.org/2000/svg"
   xmlns:svg="http://www.w3.org/2000/svg">
  <defs
     id="defs1" />
  <g
     id="layer3"
     transform="rotate(-45,94.328049,177.79082)">
    <rect
       style="fill:none;fill-opacity:1;stroke:#c0c5dc;stroke-width:0.793815;stroke-dasharray:none;stroke-opacity:1"
       id="rect1-4-6"
       width="44.655643"
       height="73.818527"
       x="75.873451"
       y="-192.06625"
       ry="0"
       transform="matrix(0.00907971,0.99995878,-0.99995878,-0.00907971,0,0)" />
    <rect
       style="fill:none;fill-opacity:1;stroke:#ececf4;stroke-width:0.79375;stroke-dasharray:none;stroke-opacity:1"
       id="rect1-4-6-4"
       width="49.545345"
       height="140.88112"
       x="89.462601"
       y="-135.01604"
       ry="0"
       transform="rotate(90)" />
    <rect
       style="fill:none;fill-opacity:1;stroke:#f2c34d;stroke-width:0.793758;stroke-dasharray:none;stroke-opacity:1"
       id="rect1-1-4-5"
       width="104.97408"
       height="103.87694"
       x="-270.12076"
       y="-97.532303"
       ry="0"
       transform="matrix(-0.99997918,0.00645318,-2.3910109e-4,-0.99999997,0,0)" />
    <path
       id="rect1"
       style="fill:none;stroke:#293181;stroke-width:0.702684"
       d="m 264.10896,-32.764502 -1e-5,99.612583 -120.4288,-10e-7 1e-5,-99.612582 z" />
    <rect
       style="fill:none;fill-opacity:1;stroke:#f2c34d;stroke-width:0.793753;stroke-dasharray:none;stroke-opacity:1"
       id="rect1-1-4"
       width="151.36458"
       height="98.30645"
       x="-149.42398"
       y="-111.58161"
       ry="0"
       transform="matrix(-0.99999103,0.00423536,-3.6429434e-4,-0.99999993,0,0)" />
    <rect
       style="fill:none;fill-opacity:1;stroke:#293181;stroke-width:0.79375;stroke-dasharray:none;stroke-opacity:1"
       id="rect1-4"
       width="114.60054"
       height="136.14201"
       x="-16.747379"
       y="-137.62404"
       ry="0"
       transform="rotate(90)" />
    <rect
       style="fill:none;fill-opacity:1;stroke:#f2c34d;stroke-width:0.79375;stroke-dasharray:none;stroke-opacity:1"
       id="rect1-1-49"
       width="99.521568"
       height="17.199558"
       x="-25.23629"
       y="126.81728"
       ry="0"
       transform="matrix(0.99999886,0.00151084,-9.1099395e-4,0.99999959,0,0)" />
    <rect
       style="fill:none;fill-opacity:1;stroke:#293181;stroke-width:0.79375;stroke-dasharray:none;stroke-opacity:1"
       id="rect1-1-49-5"
       width="99.521645"
       height="22.324701"
       x="-44.727535"
       y="136.68852"
       ry="0"
       transform="matrix(0.99999808,0.00196104,-7.0185298e-4,0.99999975,0,0)" />
  </g>
  <g
     id="layer1">
    <rect
       style="fill:none;fill-opacity:1;stroke:#686251;stroke-width:0.79375;stroke-dasharray:none;stroke-opacity:1"
       id="rect1-1-49-6"
       width="99.5215"
       height="11.159521"
       x="212.58987"
       y="16.525219"
       ry="0"
       transform="matrix(0.99999952,9.802733e-4,-0.00140407,0.99999902,0,0)" />
    <rect
       style="fill:none;fill-opacity:1;stroke:#ab955a;stroke-width:0.79375;stroke-dasharray:none;stroke-opacity:1"
       id="rect1-1-49-6-5"
       width="99.521622"
       height="20.96217"
       x="-15.282722"
       y="435.7843"
       ry="0"
       transform="matrix(0.9999983,0.00184136,-7.4747746e-4,0.99999972,0,0)" />
  </g>
  <g
     id="layer4"
     transform="translate(56.099903,136.01091)"
     style="stroke:#293181;stroke-opacity:1">
    <rect
       style="fill:none;fill-opacity:1;stroke:#c0c5dc;stroke-width:0.79375;stroke-dasharray:none;stroke-opacity:1"
       id="rect1-4-6-48"
       width="42.221249"
       height="69.794319"
       x="277.62323"
       y="40.474758"
       ry="0"
       transform="rotate(45)" />
    <rect
       style="fill:none;fill-opacity:1;stroke:#293181;stroke-width:0.79375;stroke-dasharray:none;stroke-opacity:1"
       id="rect1-8"
       width="99.521523"
       height="153.806"
       x="299.49365"
       y="70.782631"
       ry="0"
       transform="rotate(45)" />
    <rect
       style="fill:none;fill-opacity:1;stroke:#ececf4;stroke-width:0.79375;stroke-dasharray:none;stroke-opacity:1"
       id="rect1-4-6-4-5"
       width="16.034704"
       height="93.966217"
       x="257.94553"
       y="-79.663635"
       ry="0"
       transform="rotate(45)" />
    <rect
       style="fill:none;fill-opacity:1;stroke:#f2c34d;stroke-width:0.793752;stroke-dasharray:none;stroke-opacity:1"
       id="rect1-1-49-3"
       width="99.418213"
       height="42.734123"
       x="-224.85777"
       y="282.75479"
       ry="0"
       transform="matrix(0.70975892,-0.70444466,0.70684774,0.70736573,0,0)" />
    <rect
       style="fill:none;fill-opacity:1;stroke:#f2c34d;stroke-width:0.79375;stroke-dasharray:none;stroke-opacity:1"
       id="rect1-1-49-3-0"
       width="99.521568"
       height="17.199558"
       x="-47.294689"
       y="269.87674"
       ry="0"
       transform="matrix(0.7081743,-0.70603765,0.70646232,0.70775066,0,0)" />
    <rect
       style="fill:none;fill-opacity:1;stroke:#f2c34d;stroke-width:0.793753;stroke-dasharray:none;stroke-opacity:1"
       id="rect1-1-4-6"
       width="146.0414"
       height="98.306442"
       x="-91.425499"
       y="311.29852"
       ry="0"
       transform="matrix(0.70399595,-0.71020399,0.70735527,0.7068582,0,0)" />
    <rect
       style="fill:none;fill-opacity:1;stroke:#293181;stroke-width:0.79375;stroke-dasharray:none;stroke-opacity:1"
       id="rect1-8-5"
       width="99.521523"
       height="126.3882"
       x="324.92215"
       y="-44.323277"
       ry="0"
       transform="rotate(45)" />
  </g>
</svg>
